<!-- Generator: Adobe Illustrator 22.1.0  SVG Export Plug-In  -->
<svg version="1.1"
	 xmlns="http://www.w3.org/2000/svg" xmlns:xlink="http://www.w3.org/1999/xlink"  style="isolation:isolate"
	 x="0px" y="0px" width="802.7px" height="1013.7px" viewBox="0 0 802.7 1013.7"
	 xml:space="preserve">
<defs>
</defs>
<g id="z6JUzP.tif_1_">
	<g>
		<g>
			<g>
				<path fill="none" fill-rule="evenodd" stroke="#000" stroke-linecap="square" stroke-linejoin="miter" stroke-miterlimit="3" stroke-width="1" d="M401.5 1013.2c-8 0-14.7-4.6-21.4-9.7c-73.2-55.8-133.9-112.5-185.5-173.2C138 763.8 92.3 691.3 58.9 615.1
					C23 533.4 4 458.1 0.7 384.7c-0.5-10.1-0.8-18.9 5-25c5.8-6.1 14.4-6.1 24.4-6.1c40.7 0 81.4 0 122.1 0l255.6 0
					c43.2 0 86.4 0 129.7 0c2.3 0 4.8 0 6.6-0.1c0.1-2 0.1-4.6 0.1-7.1c0-12.9 0-25.8 0-38.8c-0.1-32-0.1-65.1 0.2-97.7
					c0.1-10.7-3.4-16.7-12.9-22.1c-39.3-22.2-78.4-44.8-116.1-67.1c-5.1-3-9.6-4.5-13.9-4.5c-4.3 0-8.8 1.5-13.8 4.5
					c-37.1 22.1-76.2 44.7-116.1 67.1c-10 5.6-13.5 11.8-13.1 22.8c0.6 16.6 0.4 33.4 0.2 49.7l-0.1 7c-0.3 20.2-12.4 32.5-32.5 33
					c-6.3 0.2-12.6 0.2-18.6 0.2c-6.4 0-12.8-0.1-19-0.3c-19.4-0.5-31.5-12.5-31.8-31.3c-0.5-38.3-0.3-76.7-0.1-113.9
					c0.1-8.7 3.3-20.9 18.5-29.6C254.4 79.9 320.2 42 382 6.1c6.4-3.7 12.9-5.6 19.4-5.6c6.6 0 13.1 1.9 19.9 5.8
					c65.3 37.9 135.4 78.4 205 118.2c14 8 20.4 19.8 20.4 37.4c-0.1 23.9-0.1 48.3 0 71.8c0 37.7 0 76.6-0.3 114.9
					c0 2.8 0.2 4.3 0.3 5c0.6 0.1 1.9 0.3 4 0.3c0.3 0 0.6 0 0.9 0c16.2-0.3 33.9-0.4 55.6-0.4c12 0 24.1 0 36.1 0.1
					c10.6 0 21.1 0.1 31.7 0.1c8.6 0 16.8 0 22.3 5.8c5.5 5.7 5.2 13.8 4.9 22.3c-2.6 68.1-19.3 138.8-51.1 216.2
					c-52.2 126.9-134.6 239-251.8 342.6c-22.3 19.7-45.9 38.6-68.8 56.8l-7.3 5.8C416.4 1008.4 409.7 1013.2 401.5 1013.2z
					 M109.1 445.1c-1.2 24.6 7.1 59.7 52.5 88.6c24.3 15.5 52.6 26.4 86.4 33.4c21.8 4.5 33.1 18.1 33.6 40.5c0.1 3-0.1 5.8-0.4 8.4
					c-0.2 3.1-0.5 6-0.2 8.4c0.4 3.2 0.8 6.5 1.1 9.6c1.2 10.7 2.3 20.9 5.7 29.8c4.1 11 9.9 21.3 16.1 32.3
					c2.8 5 5.7 10.2 8.4 15.5c20.4 39.3 26.6 76.1 19.1 112.6c-2.1 10.3 0.9 21.5 8.3 30.6c8 9.9 19.8 15.9 31.7 16c1 0 2 0 3 0
					c5.2 0 10.5-0.1 15.6-0.3c5.3-0.1 10.7-0.3 16.1-0.3c5 0 9.4 0.1 13.5 0.4c1.9 0.1 3.7 0.2 5.5 0.2c16.6 0 29.7-4.9 37.6-14.2
					c8.4-9.7 11.3-24.4 8.6-42.3c-1.8-11.7-1.9-24.9-0.5-41.5c2.6-28.9 15.6-54.3 26.6-73.2c15.3-26.2 29.9-54.7 24.6-89.2
					c-2.4-15.8 1.6-36.4 34.7-44.1c33.9-8 72.8-19.9 103.6-48.1c23.8-21.7 34.8-46 33.5-73.8c-12 34.2-43.2 46.2-65.9 52.3
					c-27.5 7.3-55.9 11.8-83.4 16.1c-10.2 1.6-20.8 3.3-31.1 5c-1.1 0.2-2.2 0.3-3.4 0.3c-4.9 0-9.9-1.6-13.4-4.4
					c-10.4-8.2-22.2-12.2-36-12.2c-3.4 0-6.9 0.2-10.5 0.7c-15.4 2.1-31.4 3.1-47.4 3.1c-15.4 0-31.4-1-47.7-2.9
					c-3.2-0.4-6.6-0.6-9.9-0.6c-11.8 0-22.1 2.4-28.2 6.5c-8.8 6-18 8.8-29 8.8c-5.2 0-10.2-0.6-15.1-1.2c-3.8-0.5-7.3-0.9-10.8-1
					c-3.6-0.1-6.9-0.8-9.9-1.3c-1.8-0.3-3.5-0.7-5.1-0.9c-32.9-3.9-71.2-10.6-106.1-31C125.8 473.1 115.4 461.1 109.1 445.1z"/>
			</g>
		</g>
	</g>
</g>
</svg>