<?xml version="1.0" encoding="iso-8859-1"?><!DOCTYPE svg PUBLIC "-//W3C//DTD SVG 1.1//EN" "http://www.w3.org/Graphics/SVG/1.1/DTD/svg11.dtd"><svg version="1.1" xmlns="http://www.w3.org/2000/svg" xmlns:xlink="http://www.w3.org/1999/xlink" x="0px" y="0px" width="488" height="620" viewBox="0 0 488 620" enable-background="new 0 0 488 620" xml:space="preserve"><g><polygon points="240,312 240,264 216,288" style="fill:#282828;stroke:#282828;"/><polygon points="240,312 264,288 240,264" style="fill:#272727;stroke:#272727;"/><polygon points="240,264 192,264 216,288" style="fill:#161616;stroke:#161616;"/><polygon points="192,264 192,312 216,288" style="fill:#292929;stroke:#292929;"/><polygon points="216,288 192,312 240,312" style="fill:#B9B9B9;stroke:#B9B9B9;"/><polygon points="240,264 216,240 192,264" style="fill:#161616;stroke:#161616;"/><polygon points="240,312 264,336 264,288" style="fill:#DBDBDB;stroke:#DBDBDB;"/><polygon points="192,312 264,336 240,312" style="fill:#FFFFFF;stroke:#FFFFFF;"/><polygon points="264,288 288,264 240,264" style="fill:#161616;stroke:#161616;"/><polygon points="240,264 240,216 216,240" style="fill:#171717;stroke:#171717;"/><polygon points="288,312 288,264 264,288" style="fill:#303030;stroke:#303030;"/><polygon points="264,336 288,312 264,288" style="fill:#DEDEDE;stroke:#DEDEDE;"/><polygon points="192,264 168,288 192,312" style="fill:#1F1F1F;stroke:#1F1F1F;"/><polygon points="288,264 240,216 240,264" style="fill:#161616;stroke:#161616;"/><polygon points="192,312 168,336 264,336" style="fill:#FFFFFF;stroke:#FFFFFF;"/><polygon points="168,288 168,336 192,312" style="fill:#A9A9A9;stroke:#A9A9A9;"/><polygon points="216,240 192,216 192,264" style="fill:#171717;stroke:#171717;"/><polygon points="192,264 144,264 168,288" style="fill:#161616;stroke:#161616;"/><polygon points="240,216 192,216 216,240" style="fill:#3E3E3E;stroke:#3E3E3E;"/><polygon points="288,264 288,216 240,216" style="fill:#2B2B2B;stroke:#2B2B2B;"/><polygon points="264,336 288,360 288,312" style="fill:#FFFFFF;stroke:#FFFFFF;"/><polygon points="264,384 288,360 264,336" style="fill:#FFFFFF;stroke:#FFFFFF;"/><polygon points="288,264 312,240 288,216" style="fill:#171717;stroke:#171717;"/><polygon points="336,264 312,240 288,264" style="fill:#161616;stroke:#161616;"/><polygon points="336,264 288,264 288,312" style="fill:#1F1F1F;stroke:#1F1F1F;"/><polygon points="288,360 312,336 288,312" style="fill:#FFFFFF;stroke:#FFFFFF;"/><polygon points="192,216 144,264 192,264" style="fill:#161616;stroke:#161616;"/><polygon points="168,288 144,312 168,336" style="fill:#AAAAAA;stroke:#AAAAAA;"/><polygon points="144,264 144,312 168,288" style="fill:#1B1B1B;stroke:#1B1B1B;"/><polygon points="168,336 264,384 264,336" style="fill:#FFFFFF;stroke:#FFFFFF;"/><polygon points="336,312 336,264 288,312" style="fill:#373737;stroke:#373737;"/><polygon points="312,336 336,312 288,312" style="fill:#FFFFFF;stroke:#FFFFFF;"/><polygon points="192,216 144,216 144,264" style="fill:#2B2B2B;stroke:#2B2B2B;"/><polygon points="168,336 168,384 264,384" style="fill:#FFFFFF;stroke:#FFFFFF;"/><polygon points="144,312 144,360 168,336" style="fill:#F3F3F3;stroke:#F3F3F3;"/><polygon points="192,216 168,192 144,216" style="fill:#FFFFFF;stroke:#FFFFFF;"/><polygon points="192,168 168,192 192,216" style="fill:#FFFFFF;stroke:#FFFFFF;"/><polygon points="240,168 192,216 240,216" style="fill:#FFFFFF;stroke:#FFFFFF;"/><polygon points="144,360 168,384 168,336" style="fill:#929292;stroke:#929292;"/><polygon points="288,216 240,168 240,216" style="fill:#FFFFFF;stroke:#FFFFFF;"/><polygon points="288,216 288,168 240,168" style="fill:#FFFFFF;stroke:#FFFFFF;"/><polygon points="312,240 312,192 288,216" style="fill:#A3A3A3;stroke:#A3A3A3;"/><polygon points="360,192 312,192 312,240" style="fill:#A3A3A3;stroke:#A3A3A3;"/><polygon points="288,360 312,384 312,336" style="fill:#FFFFFF;stroke:#FFFFFF;"/><polygon points="312,336 336,360 336,312" style="fill:#FBFBFB;stroke:#FBFBFB;"/><polygon points="264,384 312,384 288,360" style="fill:#FFFFFF;stroke:#FFFFFF;"/><polygon points="312,384 336,360 312,336" style="fill:#DEDEDE;stroke:#DEDEDE;"/><polygon points="336,312 360,288 336,264" style="fill:#1C1C1C;stroke:#1C1C1C;"/><polygon points="336,264 360,192 312,240" style="fill:#181818;stroke:#181818;"/><polygon points="360,336 360,288 336,312" style="fill:#CACACA;stroke:#CACACA;"/><polygon points="96,264 144,312 144,264" style="fill:#191919;stroke:#191919;"/><polygon points="96,312 120,336 144,312" style="fill:#FFFFFF;stroke:#FFFFFF;"/><polygon points="144,312 120,336 144,360" style="fill:#EAEAEA;stroke:#EAEAEA;"/><polygon points="240,168 192,168 192,216" style="fill:#FFFFFF;stroke:#FFFFFF;"/><polygon points="312,192 288,168 288,216" style="fill:#FFFFFF;stroke:#FFFFFF;"/><polygon points="264,432 288,408 264,384" style="fill:#FFFFFF;stroke:#FFFFFF;"/><polygon points="264,384 288,408 312,384" style="fill:#FFFFFF;stroke:#FFFFFF;"/><polygon points="336,360 360,336 336,312" style="fill:#F3F3F3;stroke:#F3F3F3;"/><polygon points="144,216 96,264 144,264" style="fill:#161616;stroke:#161616;"/><polygon points="96,264 96,312 144,312" style="fill:#7A7A7A;stroke:#7A7A7A;"/><polygon points="168,384 216,432 264,384" style="fill:#FFFFFF;stroke:#FFFFFF;"/><polygon points="240,168 264,144 192,168" style="fill:#FFFFFF;stroke:#FFFFFF;"/><polygon points="288,168 264,144 240,168" style="fill:#FFFFFF;stroke:#FFFFFF;"/><polygon points="216,432 264,432 264,384" style="fill:#FFFFFF;stroke:#FFFFFF;"/><polygon points="360,288 384,264 336,264" style="fill:#161616;stroke:#161616;"/><polygon points="384,312 384,264 360,288" style="fill:#373737;stroke:#373737;"/><polygon points="360,336 384,312 360,288" style="fill:#DCDCDC;stroke:#DCDCDC;"/><polygon points="144,216 96,216 96,264" style="fill:#2B2B2B;stroke:#2B2B2B;"/><polygon points="168,192 120,192 144,216" style="fill:#FFFFFF;stroke:#FFFFFF;"/><polygon points="144,168 120,192 168,192" style="fill:#F5F5F5;stroke:#F5F5F5;"/><polygon points="120,336 120,384 144,360" style="fill:#262626;stroke:#262626;"/><polygon points="144,360 120,384 168,384" style="fill:#181818;stroke:#181818;"/><polygon points="168,384 168,432 216,432" style="fill:#E6E6E6;stroke:#E6E6E6;"/><polygon points="96,360 120,384 120,336" style="fill:#1D1D1D;stroke:#1D1D1D;"/><polygon points="192,168 144,168 168,192" style="fill:#FEFEFE;stroke:#FEFEFE;"/><polygon points="120,144 144,168 144,120" style="fill:#161616;stroke:#161616;"/><polygon points="120,384 144,408 168,384" style="fill:#181818;stroke:#181818;"/><polygon points="384,216 360,192 336,264" style="fill:#161616;stroke:#161616;"/><polygon points="312,192 312,144 288,168" style="fill:#FFFFFF;stroke:#FFFFFF;"/><polygon points="288,168 312,144 264,144" style="fill:#FFFFFF;stroke:#FFFFFF;"/><polygon points="120,192 96,216 144,216" style="fill:#FFFFFF;stroke:#FFFFFF;"/><polygon points="96,312 96,360 120,336" style="fill:#939393;stroke:#939393;"/><polygon points="144,408 168,432 168,384" style="fill:#292929;stroke:#292929;"/><polygon points="360,192 312,144 312,192" style="fill:#D0D0D0;stroke:#D0D0D0;"/><polygon points="288,408 312,432 312,384" style="fill:#FDFDFD;stroke:#FDFDFD;"/><polygon points="312,384 360,432 336,360" style="fill:#333333;stroke:#333333;"/><polygon points="408,384 408,336 360,336" style="fill:#2A2A2A;stroke:#2A2A2A;"/><polygon points="360,336 408,336 384,312" style="fill:#DADADA;stroke:#DADADA;"/><polygon points="264,432 312,432 288,408" style="fill:#FEFEFE;stroke:#FEFEFE;"/><polygon points="384,264 384,216 336,264" style="fill:#161616;stroke:#161616;"/><polygon points="72,240 72,288 96,264" style="fill:#1F1F1F;stroke:#1F1F1F;"/><polygon points="96,264 72,288 96,312" style="fill:#898989;stroke:#898989;"/><polygon points="96,312 72,336 96,360" style="fill:#444444;stroke:#444444;"/><polygon points="384,312 408,288 384,264" style="fill:#535353;stroke:#535353;"/><polygon points="384,264 408,240 384,216" style="fill:#161616;stroke:#161616;"/><polygon points="408,336 408,288 384,312" style="fill:#E6E6E6;stroke:#E6E6E6;"/><polygon points="96,216 72,240 96,264" style="fill:#171717;stroke:#171717;"/><polygon points="72,288 72,336 96,312" style="fill:#C9C9C9;stroke:#C9C9C9;"/><polygon points="168,96 144,120 192,168" style="fill:#F1F1F1;stroke:#F1F1F1;"/><polygon points="312,144 288,120 264,144" style="fill:#FFFFFF;stroke:#FFFFFF;"/><polygon points="264,432 288,456 312,432" style="fill:#FAFAFA;stroke:#FAFAFA;"/><polygon points="264,480 288,456 264,432" style="fill:#FFFFFF;stroke:#FFFFFF;"/><polygon points="216,480 264,432 216,432" style="fill:#FFFFFF;stroke:#FFFFFF;"/><polygon points="408,288 408,240 384,264" style="fill:#161616;stroke:#161616;"/><polygon points="384,408 360,336 336,360" style="fill:#292929;stroke:#292929;"/><polygon points="96,216 72,192 72,240" style="fill:#A3A3A3;stroke:#A3A3A3;"/><polygon points="120,192 96,168 96,216" style="fill:#FEFEFE;stroke:#FEFEFE;"/><polygon points="144,168 96,168 120,192" style="fill:#8C8C8C;stroke:#8C8C8C;"/><polygon points="120,144 96,168 144,168" style="fill:#161616;stroke:#161616;"/><polygon points="144,120 144,168 192,168" style="fill:#D2D2D2;stroke:#D2D2D2;"/><polygon points="168,432 216,480 216,432" style="fill:#E5E5E5;stroke:#E5E5E5;"/><polygon points="144,408 120,432 168,432" style="fill:#161616;stroke:#161616;"/><polygon points="120,384 120,432 144,408" style="fill:#161616;stroke:#161616;"/><polygon points="72,432 120,432 120,384" style="fill:#161616;stroke:#161616;"/><polygon points="72,432 120,384 96,360" style="fill:#161616;stroke:#161616;"/><polygon points="312,144 312,96 288,120" style="fill:#FFFFFF;stroke:#FFFFFF;"/><polygon points="360,192 360,144 312,144" style="fill:#5A5A5A;stroke:#5A5A5A;"/><polygon points="384,168 360,144 360,192" style="fill:#161616;stroke:#161616;"/><polygon points="384,168 360,192 384,216" style="fill:#161616;stroke:#161616;"/><polygon points="312,432 360,432 312,384" style="fill:#4C4C4C;stroke:#4C4C4C;"/><polygon points="336,456 360,432 312,432" style="fill:#161616;stroke:#161616;"/><polygon points="408,192 384,168 384,216" style="fill:#767676;stroke:#767676;"/><polygon points="360,432 384,408 336,360" style="fill:#161616;stroke:#161616;"/><polygon points="72,240 48,264 72,288" style="fill:#7F7F7F;stroke:#7F7F7F;"/><polygon points="72,288 48,312 72,336" style="fill:#474747;stroke:#474747;"/><polygon points="48,216 48,264 72,240" style="fill:#181818;stroke:#181818;"/><polygon points="72,336 48,408 96,360" style="fill:#161616;stroke:#161616;"/><polygon points="48,264 48,312 72,288" style="fill:#5F5F5F;stroke:#5F5F5F;"/><polygon points="96,168 72,192 96,216" style="fill:#FFFFFF;stroke:#FFFFFF;"/><polygon points="264,96 192,168 264,144" style="fill:#FFFFFF;stroke:#FFFFFF;"/><polygon points="168,480 216,480 168,432" style="fill:#454545;stroke:#454545;"/><polygon points="288,120 264,96 264,144" style="fill:#FFFFFF;stroke:#FFFFFF;"/><polygon points="312,96 264,96 288,120" style="fill:#FFFFFF;stroke:#FFFFFF;"/><polygon points="288,456 336,456 312,432" style="fill:#323232;stroke:#323232;"/><polygon points="216,480 264,480 264,432" style="fill:#FFFFFF;stroke:#FFFFFF;"/><polygon points="312,480 336,456 288,456" style="fill:#232323;stroke:#232323;"/><polygon points="408,240 408,192 384,216" style="fill:#8A8A8A;stroke:#8A8A8A;"/><polygon points="384,408 408,384 360,336" style="fill:#1B1B1B;stroke:#1B1B1B;"/><polygon points="408,336 432,312 408,288" style="fill:#828282;stroke:#828282;"/><polygon points="408,288 456,288 408,240" style="fill:#636363;stroke:#636363;"/><polygon points="408,240 432,216 408,192" style="fill:#A3A3A3;stroke:#A3A3A3;"/><polygon points="432,360 432,312 408,336" style="fill:#161616;stroke:#161616;"/><polygon points="72,192 48,216 72,240" style="fill:#A3A3A3;stroke:#A3A3A3;"/><polygon points="264,96 168,96 192,168" style="fill:#FEFEFE;stroke:#FEFEFE;"/><polygon points="120,432 168,480 168,432" style="fill:#161616;stroke:#161616;"/><polygon points="360,144 312,96 312,144" style="fill:#D0D0D0;stroke:#D0D0D0;"/><polygon points="264,480 312,480 288,456" style="fill:#BBBBBB;stroke:#BBBBBB;"/><polygon points="456,288 432,216 408,240" style="fill:#1D1D1D;stroke:#1D1D1D;"/><polygon points="408,384 432,360 408,336" style="fill:#161616;stroke:#161616;"/><polygon points="0,288 24,288 0,264" style="fill:#5D5D5D;stroke:#5D5D5D;"/><polygon points="48,264 24,288 48,312" style="fill:#161616;stroke:#161616;"/><polygon points="48,312 24,336 72,336" style="fill:#161616;stroke:#161616;"/><polygon points="264,96 240,72 168,96" style="fill:#F8F8F8;stroke:#F8F8F8;"/><polygon points="288,72 240,72 264,96" style="fill:#E5E5E5;stroke:#E5E5E5;"/><polygon points="216,480 240,504 264,480" style="fill:#FFFFFF;stroke:#FFFFFF;"/><polygon points="264,480 288,504 312,480" style="fill:#B4B4B4;stroke:#B4B4B4;"/><polygon points="192,504 240,504 216,480" style="fill:#FEFEFE;stroke:#FEFEFE;"/><polygon points="432,312 456,288 408,288" style="fill:#5C5C5C;stroke:#5C5C5C;"/><polygon points="456,336 456,288 432,312" style="fill:#161616;stroke:#161616;"/><polygon points="24,288 24,336 48,312" style="fill:#161616;stroke:#161616;"/><polygon points="96,120 120,144 144,120" style="fill:#161616;stroke:#161616;"/><polygon points="96,120 72,144 120,144" style="fill:#868686;stroke:#868686;"/><polygon points="120,144 72,144 96,168" style="fill:#888888;stroke:#888888;"/><polygon points="96,168 72,144 72,192" style="fill:#FFFFFF;stroke:#FFFFFF;"/><polygon points="72,192 48,168 48,216" style="fill:#FFFFFF;stroke:#FFFFFF;"/><polygon points="48,408 72,432 96,360" style="fill:#181818;stroke:#181818;"/><polygon points="120,432 120,480 168,480" style="fill:#161616;stroke:#161616;"/><polygon points="120,96 96,120 144,120" style="fill:#161616;stroke:#161616;"/><polygon points="72,432 96,456 120,432" style="fill:#161616;stroke:#161616;"/><polygon points="240,72 192,72 168,96" style="fill:#5D5D5D;stroke:#5D5D5D;"/><polygon points="168,96 120,96 144,120" style="fill:#181818;stroke:#181818;"/><polygon points="144,504 192,504 168,480" style="fill:#161616;stroke:#161616;"/><polygon points="168,480 192,504 216,480" style="fill:#636363;stroke:#636363;"/><polygon points="312,96 288,72 264,96" style="fill:#B2B2B2;stroke:#B2B2B2;"/><polygon points="240,504 288,504 264,480" style="fill:#FFFFFF;stroke:#FFFFFF;"/><polygon points="360,480 384,456 336,456" style="fill:#161616;stroke:#161616;"/><polygon points="336,456 384,456 360,432" style="fill:#161616;stroke:#161616;"/><polygon points="360,432 384,456 384,408" style="fill:#161616;stroke:#161616;"/><polygon points="384,408 408,432 408,384" style="fill:#161616;stroke:#161616;"/><polygon points="408,384 432,408 432,360" style="fill:#161616;stroke:#161616;"/><polygon points="360,480 336,456 312,480" style="fill:#161616;stroke:#161616;"/><polygon points="432,168 408,144 408,192" style="fill:#FFFFFF;stroke:#FFFFFF;"/><polygon points="408,192 408,144 384,168" style="fill:#E0E0E0;stroke:#E0E0E0;"/><polygon points="384,168 408,144 360,144" style="fill:#434343;stroke:#434343;"/><polygon points="360,144 360,96 312,96" style="fill:#2B2B2B;stroke:#2B2B2B;"/><polygon points="312,96 336,72 288,72" style="fill:#161616;stroke:#161616;"/><polygon points="384,456 408,432 384,408" style="fill:#161616;stroke:#161616;"/><polygon points="456,384 456,336 432,360" style="fill:#222222;stroke:#222222;"/><polygon points="432,360 456,336 432,312" style="fill:#161616;stroke:#161616;"/><polygon points="72,144 48,168 72,192" style="fill:#FFFFFF;stroke:#FFFFFF;"/><polygon points="0,264 24,288 48,264" style="fill:#171717;stroke:#171717;"/><polygon points="24,384 48,408 72,336" style="fill:#4E4E4E;stroke:#4E4E4E;"/><polygon points="144,72 120,96 168,96" style="fill:#161616;stroke:#161616;"/><polygon points="96,456 120,480 120,432" style="fill:#161616;stroke:#161616;"/><polygon points="408,144 360,96 360,144" style="fill:#2C2C2C;stroke:#2C2C2C;"/><polygon points="336,504 360,480 312,480" style="fill:#161616;stroke:#161616;"/><polygon points="488,192 432,168 432,216" style="fill:#FFFFFF;stroke:#FFFFFF;"/><polygon points="432,216 432,168 408,192" style="fill:#FFFFFF;stroke:#FFFFFF;"/><polygon points="408,432 432,408 408,384" style="fill:#161616;stroke:#161616;"/><polygon points="48,168 24,192 48,216" style="fill:#FFFFFF;stroke:#FFFFFF;"/><polygon points="24,336 24,384 72,336" style="fill:#383838;stroke:#383838;"/><polygon points="192,72 144,72 168,96" style="fill:#161616;stroke:#161616;"/><polygon points="120,480 144,504 168,480" style="fill:#161616;stroke:#161616;"/><polygon points="360,96 336,72 312,96" style="fill:#161616;stroke:#161616;"/><polygon points="288,504 336,504 312,480" style="fill:#191919;stroke:#191919;"/><polygon points="432,408 456,384 432,360" style="fill:#2F2F2F;stroke:#2F2F2F;"/><polygon points="24,288 0,312 24,336" style="fill:#565656;stroke:#565656;"/><polygon points="24,336 0,360 24,384" style="fill:#F6F6F6;stroke:#F6F6F6;"/><polygon points="0,264 48,264 0,240" style="fill:#1E1E1E;stroke:#1E1E1E;"/><polygon points="0,240 48,264 48,216" style="fill:#171717;stroke:#171717;"/><polygon points="0,288 0,312 24,288" style="fill:#959595;stroke:#959595;"/><polygon points="240,504 288,552 288,504" style="fill:#E2E2E2;stroke:#E2E2E2;"/><polygon points="288,504 312,528 336,504" style="fill:#1A1A1A;stroke:#1A1A1A;"/><polygon points="192,504 216,528 240,504" style="fill:#FEFEFE;stroke:#FEFEFE;"/><polygon points="192,552 216,528 192,504" style="fill:#7D7D7D;stroke:#7D7D7D;"/><polygon points="288,72 264,48 240,72" style="fill:#525252;stroke:#525252;"/><polygon points="240,72 240,24 192,72" style="fill:#2F2F2F;stroke:#2F2F2F;"/><polygon points="192,72 168,48 144,72" style="fill:#161616;stroke:#161616;"/><polygon points="312,48 264,48 288,72" style="fill:#161616;stroke:#161616;"/><polygon points="456,288 480,264 432,216" style="fill:#161616;stroke:#161616;"/><polygon points="488,288 480,264 456,288" style="fill:#2A2A2A;stroke:#2A2A2A;"/><polygon points="480,312 456,288 456,336" style="fill:#1D1D1D;stroke:#1D1D1D;"/><polygon points="488,336 480,312 456,336" style="fill:#B4B4B4;stroke:#B4B4B4;"/><polygon points="0,216 0,240 48,216" style="fill:#424242;stroke:#424242;"/><polygon points="0,312 0,336 24,336" style="fill:#F2F2F2;stroke:#F2F2F2;"/><polygon points="480,312 488,288 456,288" style="fill:#565656;stroke:#565656;"/><polygon points="24,192 0,216 48,216" style="fill:#FFFFFF;stroke:#FFFFFF;"/><polygon points="0,336 0,360 24,336" style="fill:#FAFAFA;stroke:#FAFAFA;"/><polygon points="192,24 168,48 192,72" style="fill:#181818;stroke:#181818;"/><polygon points="336,72 312,48 288,72" style="fill:#161616;stroke:#161616;"/><polygon points="288,552 312,528 288,504" style="fill:#333333;stroke:#333333;"/><polygon points="488,240 480,216 432,216" style="fill:#3E3E3E;stroke:#3E3E3E;"/><polygon points="488,240 432,216 480,264" style="fill:#181818;stroke:#181818;"/><polygon points="488,288 488,240 480,264" style="fill:#636363;stroke:#636363;"/><polygon points="456,384 488,336 456,336" style="fill:#BEBEBE;stroke:#BEBEBE;"/><polygon points="480,312 488,336 488,288" style="fill:#FFFFFF;stroke:#FFFFFF;"/><polygon points="24,432 48,456 48,408" style="fill:#FFFFFF;stroke:#FFFFFF;"/><polygon points="48,408 48,456 72,432" style="fill:#DBDBDB;stroke:#DBDBDB;"/><polygon points="72,432 48,456 96,456" style="fill:#8F8F8F;stroke:#8F8F8F;"/><polygon points="96,456 72,480 120,480" style="fill:#5A5A5A;stroke:#5A5A5A;"/><polygon points="120,480 96,504 144,504" style="fill:#3E3E3E;stroke:#3E3E3E;"/><polygon points="24,432 48,408 24,384" style="fill:#FFFFFF;stroke:#FFFFFF;"/><polygon points="96,72 72,96 120,96" style="fill:#9C9C9C;stroke:#9C9C9C;"/><polygon points="120,96 72,96 96,120" style="fill:#868686;stroke:#868686;"/><polygon points="96,120 72,96 72,144" style="fill:#FEFEFE;stroke:#FEFEFE;"/><polygon points="72,144 0,144 48,168" style="fill:#FFFFFF;stroke:#FFFFFF;"/><polygon points="0,168 0,192 24,192" style="fill:#FFFFFF;stroke:#FFFFFF;"/><polygon points="24,192 0,192 0,216" style="fill:#FFFFFF;stroke:#FFFFFF;"/><polygon points="96,72 120,96 144,72" style="fill:#282828;stroke:#282828;"/><polygon points="48,456 72,480 96,456" style="fill:#E1E1E1;stroke:#E1E1E1;"/><polygon points="336,72 360,48 312,48" style="fill:#454545;stroke:#454545;"/><polygon points="360,96 384,72 336,72" style="fill:#1A1A1A;stroke:#1A1A1A;"/><polygon points="408,144 408,96 360,96" style="fill:#929292;stroke:#929292;"/><polygon points="488,144 408,96 408,144" style="fill:#FFFFFF;stroke:#FFFFFF;"/><polygon points="488,144 408,144 432,168" style="fill:#FFFFFF;stroke:#FFFFFF;"/><polygon points="0,168 24,192 48,168" style="fill:#FFFFFF;stroke:#FFFFFF;"/><polygon points="0,360 0,384 24,384" style="fill:#FFFFFF;stroke:#FFFFFF;"/><polygon points="0,384 24,432 24,384" style="fill:#FFFFFF;stroke:#FFFFFF;"/><polygon points="120,48 96,72 144,72" style="fill:#B6B6B6;stroke:#B6B6B6;"/><polygon points="72,480 96,504 120,480" style="fill:#C2C2C2;stroke:#C2C2C2;"/><polygon points="144,504 192,552 192,504" style="fill:#161616;stroke:#161616;"/><polygon points="408,96 384,72 360,96" style="fill:#575757;stroke:#575757;"/><polygon points="288,24 240,24 264,48" style="fill:#161616;stroke:#161616;"/><polygon points="264,48 240,24 240,72" style="fill:#2D2D2D;stroke:#2D2D2D;"/><polygon points="480,216 488,192 432,216" style="fill:#FFFFFF;stroke:#FFFFFF;"/><polygon points="488,240 488,192 480,216" style="fill:#ACACAC;stroke:#ACACAC;"/><polygon points="456,384 488,384 488,336" style="fill:#FFFFFF;stroke:#FFFFFF;"/><polygon points="488,432 488,384 456,384" style="fill:#FFFFFF;stroke:#FFFFFF;"/><polygon points="488,432 456,384 432,408" style="fill:#F7F7F7;stroke:#F7F7F7;"/><polygon points="488,432 432,408 408,432" style="fill:#C4C4C4;stroke:#C4C4C4;"/><polygon points="488,432 408,432 488,480" style="fill:#F9F9F9;stroke:#F9F9F9;"/><polygon points="360,528 384,456 360,480" style="fill:#1D1D1D;stroke:#1D1D1D;"/><polygon points="360,528 360,480 336,504" style="fill:#1D1D1D;stroke:#1D1D1D;"/><polygon points="0,144 0,168 48,168" style="fill:#FFFFFF;stroke:#FFFFFF;"/><polygon points="144,24 120,48 168,48" style="fill:#F2F2F2;stroke:#F2F2F2;"/><polygon points="168,48 120,48 144,72" style="fill:#696969;stroke:#696969;"/><polygon points="96,504 120,528 144,504" style="fill:#A8A8A8;stroke:#A8A8A8;"/><polygon points="240,24 192,24 192,72" style="fill:#171717;stroke:#171717;"/><polygon points="216,528 288,552 240,504" style="fill:#E5E5E5;stroke:#E5E5E5;"/><polygon points="144,552 192,552 144,504" style="fill:#303030;stroke:#303030;"/><polygon points="336,24 288,24 312,48" style="fill:#A3A3A3;stroke:#A3A3A3;"/><polygon points="312,48 288,24 264,48" style="fill:#161616;stroke:#161616;"/><polygon points="312,528 360,528 336,504" style="fill:#1B1B1B;stroke:#1B1B1B;"/><polygon points="264,576 288,552 216,528" style="fill:#383838;stroke:#383838;"/><polygon points="384,72 360,48 336,72" style="fill:#888888;stroke:#888888;"/><polygon points="336,620 360,528 312,528" style="fill:#BDBDBD;stroke:#BDBDBD;"/><polygon points="488,192 480,168 432,168" style="fill:#FFFFFF;stroke:#FFFFFF;"/><polygon points="72,48 72,96 96,72" style="fill:#FFFFFF;stroke:#FFFFFF;"/><polygon points="0,96 0,144 72,96" style="fill:#FFFFFF;stroke:#FFFFFF;"/><polygon points="72,96 0,144 72,144" style="fill:#FFFFFF;stroke:#FFFFFF;"/><polygon points="0,384 0,432 24,432" style="fill:#FFFFFF;stroke:#FFFFFF;"/><polygon points="24,432 24,480 48,456" style="fill:#FFFFFF;stroke:#FFFFFF;"/><polygon points="48,456 24,480 72,480" style="fill:#FFFFFF;stroke:#FFFFFF;"/><polygon points="72,480 0,528 96,504" style="fill:#FFFFFF;stroke:#FFFFFF;"/><polygon points="48,620 96,620 120,528" style="fill:#FFFFFF;stroke:#FFFFFF;"/><polygon points="120,48 72,48 96,72" style="fill:#FFFFFF;stroke:#FFFFFF;"/><polygon points="192,24 144,24 168,48" style="fill:#D5D5D5;stroke:#D5D5D5;"/><polygon points="120,528 144,552 144,504" style="fill:#9E9E9E;stroke:#9E9E9E;"/><polygon points="144,620 144,552 96,620" style="fill:#FFFFFF;stroke:#FFFFFF;"/><polygon points="360,48 336,24 312,48" style="fill:#DEDEDE;stroke:#DEDEDE;"/><polygon points="488,192 488,144 480,168" style="fill:#FFFFFF;stroke:#FFFFFF;"/><polygon points="480,168 488,144 432,168" style="fill:#FFFFFF;stroke:#FFFFFF;"/><polygon points="408,0 384,0 384,72" style="fill:#FFFFFF;stroke:#FFFFFF;"/><polygon points="384,0 336,24 360,48" style="fill:#FFFFFF;stroke:#FFFFFF;"/><polygon points="384,0 336,0 336,24" style="fill:#FFFFFF;stroke:#FFFFFF;"/><polygon points="488,480 408,432 384,456" style="fill:#B5B5B5;stroke:#B5B5B5;"/><polygon points="264,0 240,0 240,24" style="fill:#2B2B2B;stroke:#2B2B2B;"/><polygon points="240,24 240,0 192,24" style="fill:#232323;stroke:#232323;"/><polygon points="192,24 168,0 144,24" style="fill:#FFFFFF;stroke:#FFFFFF;"/><polygon points="264,0 240,24 288,24" style="fill:#393939;stroke:#393939;"/><polygon points="0,432 24,480 24,432" style="fill:#FFFFFF;stroke:#FFFFFF;"/><polygon points="288,0 264,0 288,24" style="fill:#F8F8F8;stroke:#F8F8F8;"/><polygon points="288,552 336,620 312,528" style="fill:#7F7F7F;stroke:#7F7F7F;"/><polygon points="192,552 264,576 216,528" style="fill:#2F2F2F;stroke:#2F2F2F;"/><polygon points="240,620 264,576 192,552" style="fill:#161616;stroke:#161616;"/><polygon points="240,0 192,0 192,24" style="fill:#F2F2F2;stroke:#F2F2F2;"/><polygon points="312,0 288,0 288,24" style="fill:#FDFDFD;stroke:#FDFDFD;"/><polygon points="96,24 72,48 120,48" style="fill:#FFFFFF;stroke:#FFFFFF;"/><polygon points="96,24 120,48 144,24" style="fill:#FFFFFF;stroke:#FFFFFF;"/><polygon points="192,0 168,0 192,24" style="fill:#FFFFFF;stroke:#FFFFFF;"/><polygon points="144,552 168,576 192,552" style="fill:#9B9B9B;stroke:#9B9B9B;"/><polygon points="192,620 168,576 144,620" style="fill:#FFFFFF;stroke:#FFFFFF;"/><polygon points="336,0 312,0 336,24" style="fill:#FFFFFF;stroke:#FFFFFF;"/><polygon points="336,24 312,0 288,24" style="fill:#FEFEFE;stroke:#FEFEFE;"/><polygon points="120,0 96,24 144,24" style="fill:#FFFFFF;stroke:#FFFFFF;"/><polygon points="168,0 144,0 144,24" style="fill:#FFFFFF;stroke:#FFFFFF;"/><polygon points="384,0 360,48 384,72" style="fill:#FFFFFF;stroke:#FFFFFF;"/><polygon points="0,48 0,96 72,48" style="fill:#FFFFFF;stroke:#FFFFFF;"/><polygon points="72,48 0,96 72,96" style="fill:#FFFFFF;stroke:#FFFFFF;"/><polygon points="24,480 0,528 72,480" style="fill:#FFFFFF;stroke:#FFFFFF;"/><polygon points="0,432 0,480 24,480" style="fill:#FFFFFF;stroke:#FFFFFF;"/><polygon points="96,24 72,0 72,48" style="fill:#FFFFFF;stroke:#FFFFFF;"/><polygon points="144,0 120,0 144,24" style="fill:#FFFFFF;stroke:#FFFFFF;"/><polygon points="488,144 488,96 408,96" style="fill:#FFFFFF;stroke:#FFFFFF;"/><polygon points="488,528 384,456 360,528" style="fill:#DFDFDF;stroke:#DFDFDF;"/><polygon points="488,528 488,480 384,456" style="fill:#F7F7F7;stroke:#F7F7F7;"/><polygon points="120,0 96,0 96,24" style="fill:#FFFFFF;stroke:#FFFFFF;"/><polygon points="456,48 384,72 408,96" style="fill:#FFFFFF;stroke:#FFFFFF;"/><polygon points="488,96 456,48 408,96" style="fill:#FFFFFF;stroke:#FFFFFF;"/><polygon points="192,620 240,620 192,552" style="fill:#979797;stroke:#979797;"/><polygon points="264,576 288,620 288,552" style="fill:#4D4D4D;stroke:#4D4D4D;"/><polygon points="192,620 192,552 168,576" style="fill:#C1C1C1;stroke:#C1C1C1;"/><polygon points="96,0 72,0 96,24" style="fill:#FFFFFF;stroke:#FFFFFF;"/><polygon points="456,48 408,0 384,72" style="fill:#FFFFFF;stroke:#FFFFFF;"/><polygon points="144,620 168,576 144,552" style="fill:#FFFFFF;stroke:#FFFFFF;"/><polygon points="240,620 288,620 264,576" style="fill:#787878;stroke:#787878;"/><polygon points="48,0 0,48 72,48" style="fill:#FFFFFF;stroke:#FFFFFF;"/><polygon points="0,480 0,528 24,480" style="fill:#FFFFFF;stroke:#FFFFFF;"/><polygon points="488,96 488,48 456,48" style="fill:#FFFFFF;stroke:#FFFFFF;"/><polygon points="456,48 432,0 408,0" style="fill:#FFFFFF;stroke:#FFFFFF;"/><polygon points="456,576 488,528 360,528" style="fill:#FFFFFF;stroke:#FFFFFF;"/><polygon points="96,620 144,552 120,528" style="fill:#FFFFFF;stroke:#FFFFFF;"/><polygon points="288,620 336,620 288,552" style="fill:#D8D8D8;stroke:#D8D8D8;"/><polygon points="72,0 48,0 72,48" style="fill:#FFFFFF;stroke:#FFFFFF;"/><polygon points="456,0 432,0 456,48" style="fill:#FFFFFF;stroke:#FFFFFF;"/><polygon points="48,0 24,0 0,48" style="fill:#FFFFFF;stroke:#FFFFFF;"/><polygon points="480,0 456,0 456,48" style="fill:#FFFFFF;stroke:#FFFFFF;"/><polygon points="384,620 456,576 360,528" style="fill:#FFFFFF;stroke:#FFFFFF;"/><polygon points="48,620 120,528 96,504" style="fill:#FFFFFF;stroke:#FFFFFF;"/><polygon points="336,620 384,620 360,528" style="fill:#FFFFFF;stroke:#FFFFFF;"/><polygon points="24,0 0,0 0,48" style="fill:#FFFFFF;stroke:#FFFFFF;"/><polygon points="0,528 0,576 96,504" style="fill:#FFFFFF;stroke:#FFFFFF;"/><polygon points="488,48 480,0 456,48" style="fill:#FFFFFF;stroke:#FFFFFF;"/><polygon points="488,48 488,0 480,0" style="fill:#FFFFFF;stroke:#FFFFFF;"/><polygon points="480,620 488,576 456,576" style="fill:#FFFFFF;stroke:#FFFFFF;"/><polygon points="456,576 488,576 488,528" style="fill:#FFFFFF;stroke:#FFFFFF;"/><polygon points="0,576 48,620 96,504" style="fill:#FFFFFF;stroke:#FFFFFF;"/><polygon points="384,620 432,620 456,576" style="fill:#FFFFFF;stroke:#FFFFFF;"/><polygon points="0,576 0,620 48,620" style="fill:#FFFFFF;stroke:#FFFFFF;"/><polygon points="432,620 480,620 456,576" style="fill:#FFFFFF;stroke:#FFFFFF;"/><polygon points="480,620 488,620 488,576" style="fill:#FFFFFF;stroke:#FFFFFF;"/></g></svg>